<svg width="181" height="41" viewBox="0 0 181 41" fill="none" xmlns="http://www.w3.org/2000/svg">
    <path
        d="M165.355 5.99503V4.72727H171.328V5.99503H169.102V12H167.582V5.99503H165.355ZM172.312 4.72727H174.208L176.211 9.61364H176.296L178.299 4.72727H180.195V12H178.704V7.26634H178.643L176.761 11.9645H175.746L173.864 7.24858H173.803V12H172.312V4.72727Z"
        fill="white" />
    <path
        d="M55.112 12.9115H57.08V28.3195H65.648V29.9995H55.112V12.9115ZM78.5587 17.9275V29.9995H76.6387V27.8155C76.2867 28.5675 75.7507 29.1515 75.0307 29.5675C74.3267 29.9675 73.5027 30.1675 72.5587 30.1675C71.4867 30.1675 70.5427 29.9115 69.7267 29.3995C68.9267 28.8875 68.3027 28.1675 67.8547 27.2395C67.4227 26.2955 67.2067 25.1995 67.2067 23.9515C67.2067 22.7035 67.4307 21.6075 67.8787 20.6635C68.3267 19.7035 68.9507 18.9595 69.7507 18.4315C70.5667 17.9035 71.5027 17.6395 72.5587 17.6395C73.5027 17.6395 74.3267 17.8475 75.0307 18.2635C75.7347 18.6795 76.2707 19.2635 76.6387 20.0155V17.9275H78.5587ZM72.9427 28.5595C74.1267 28.5595 75.0387 28.1595 75.6787 27.3595C76.3187 26.5435 76.6387 25.3915 76.6387 23.9035C76.6387 22.4155 76.3187 21.2715 75.6787 20.4715C75.0387 19.6715 74.1267 19.2715 72.9427 19.2715C71.7587 19.2715 70.8307 19.6875 70.1587 20.5195C69.5027 21.3355 69.1747 22.4795 69.1747 23.9515C69.1747 25.4235 69.5027 26.5595 70.1587 27.3595C70.8147 28.1595 71.7427 28.5595 72.9427 28.5595ZM87.9333 17.6395C88.3333 17.6395 88.7013 17.6875 89.0373 17.7835L88.9893 19.5595C88.6213 19.4315 88.1973 19.3675 87.7173 19.3675C86.5493 19.3675 85.6773 19.7355 85.1013 20.4715C84.5413 21.1915 84.2613 22.0715 84.2613 23.1115V29.9995H82.3173V21.3115C82.3173 20.0635 82.2533 18.9355 82.1253 17.9275H83.9733L84.1653 20.1595C84.4693 19.3435 84.9573 18.7195 85.6293 18.2875C86.3013 17.8555 87.0693 17.6395 87.9333 17.6395ZM101.41 17.9275V29.9995H99.4903V27.8155C99.1383 28.5675 98.6023 29.1515 97.8823 29.5675C97.1783 29.9675 96.3543 30.1675 95.4103 30.1675C94.3383 30.1675 93.3943 29.9115 92.5783 29.3995C91.7783 28.8875 91.1543 28.1675 90.7063 27.2395C90.2743 26.2955 90.0583 25.1995 90.0583 23.9515C90.0583 22.7035 90.2823 21.6075 90.7303 20.6635C91.1783 19.7035 91.8023 18.9595 92.6023 18.4315C93.4183 17.9035 94.3543 17.6395 95.4103 17.6395C96.3543 17.6395 97.1783 17.8475 97.8823 18.2635C98.5863 18.6795 99.1223 19.2635 99.4903 20.0155V17.9275H101.41ZM95.7943 28.5595C96.9783 28.5595 97.8903 28.1595 98.5303 27.3595C99.1703 26.5435 99.4903 25.3915 99.4903 23.9035C99.4903 22.4155 99.1703 21.2715 98.5303 20.4715C97.8903 19.6715 96.9783 19.2715 95.7943 19.2715C94.6103 19.2715 93.6823 19.6875 93.0103 20.5195C92.3543 21.3355 92.0263 22.4795 92.0263 23.9515C92.0263 25.4235 92.3543 26.5595 93.0103 27.3595C93.6663 28.1595 94.5943 28.5595 95.7943 28.5595ZM105.145 12.9115H112.561C114.401 12.9115 115.833 13.3595 116.857 14.2555C117.881 15.1355 118.393 16.3435 118.393 17.8795C118.393 19.4155 117.873 20.6315 116.833 21.5275C115.809 22.4235 114.385 22.8715 112.561 22.8715H108.241V29.9995H105.145V12.9115ZM112.201 20.4715C113.273 20.4715 114.081 20.2555 114.625 19.8235C115.185 19.3755 115.465 18.7355 115.465 17.9035C115.465 17.0555 115.193 16.4155 114.649 15.9835C114.105 15.5355 113.289 15.3115 112.201 15.3115H108.241V20.4715H112.201ZM131.742 17.8795V29.9995H128.814V28.1275C128.43 28.7995 127.918 29.3115 127.278 29.6635C126.638 30.0155 125.902 30.1915 125.07 30.1915C122.11 30.1915 120.63 28.5275 120.63 25.1995V17.8795H123.606V25.2235C123.606 26.1035 123.782 26.7515 124.134 27.1675C124.502 27.5835 125.062 27.7915 125.814 27.7915C126.694 27.7915 127.398 27.5035 127.926 26.9275C128.454 26.3515 128.718 25.5835 128.718 24.6235V17.8795H131.742ZM139.439 30.1915C137.247 30.1915 135.503 29.6795 134.207 28.6555L135.047 26.5435C136.343 27.5035 137.823 27.9835 139.487 27.9835C140.207 27.9835 140.759 27.8635 141.143 27.6235C141.543 27.3835 141.743 27.0475 141.743 26.6155C141.743 26.2475 141.607 25.9595 141.335 25.7515C141.063 25.5275 140.599 25.3355 139.943 25.1755L137.927 24.7195C135.719 24.2395 134.615 23.1115 134.615 21.3355C134.615 20.5995 134.823 19.9515 135.239 19.3915C135.655 18.8155 136.239 18.3675 136.991 18.0475C137.743 17.7275 138.615 17.5675 139.607 17.5675C140.471 17.5675 141.303 17.7035 142.103 17.9755C142.903 18.2315 143.607 18.6075 144.215 19.1035L143.327 21.1435C142.111 20.2475 140.863 19.7995 139.583 19.7995C138.895 19.7995 138.359 19.9275 137.975 20.1835C137.591 20.4395 137.399 20.7915 137.399 21.2395C137.399 21.5915 137.511 21.8715 137.735 22.0795C137.975 22.2875 138.375 22.4635 138.935 22.6075L140.999 23.0635C142.199 23.3355 143.071 23.7595 143.615 24.3355C144.175 24.8955 144.455 25.6315 144.455 26.5435C144.455 27.6635 144.007 28.5515 143.111 29.2075C142.215 29.8635 140.991 30.1915 139.439 30.1915ZM153.959 17.5675C156.855 17.5675 158.303 19.2315 158.303 22.5595V29.9995H155.303V22.7035C155.303 21.7435 155.119 21.0475 154.751 20.6155C154.383 20.1675 153.815 19.9435 153.047 19.9435C152.135 19.9435 151.399 20.2395 150.839 20.8315C150.279 21.4075 149.999 22.1755 149.999 23.1355V29.9995H147.023V12.3355H149.999V19.6315C150.415 18.9755 150.967 18.4715 151.655 18.1195C152.343 17.7515 153.111 17.5675 153.959 17.5675Z"
        fill="white" />
    <path
        d="M20.5 41C31.8218 41 41 31.8218 41 20.5C41 9.17816 31.8218 0 20.5 0C9.17816 0 0 9.17816 0 20.5C0 31.8218 9.17816 41 20.5 41Z"
        fill="white" />
    <path
        d="M20 34.7242C19.1804 34.7251 18.379 34.4828 17.6971 34.0281C17.0151 33.5734 16.4834 32.9266 16.1692 32.1697C15.8549 31.4127 15.7722 30.5795 15.9316 29.7755C16.091 28.9715 16.4852 28.2329 17.0645 27.653C17.6437 27.0732 18.382 26.6781 19.1858 26.5179C19.9896 26.3577 20.8228 26.4395 21.5802 26.7529C22.3375 27.0664 22.9848 27.5974 23.4402 28.2789C23.8957 28.9603 24.1388 29.7615 24.1388 30.5811C24.1388 31.6792 23.7029 32.7323 22.9268 33.5092C22.1508 34.2861 21.0981 34.7231 20 34.7242ZM20 28.503C19.589 28.503 19.1872 28.6249 18.8455 28.8532C18.5038 29.0816 18.2374 29.4061 18.0801 29.7858C17.9228 30.1656 17.8817 30.5834 17.9618 30.9865C18.042 31.3897 18.24 31.7599 18.5306 32.0506C18.8212 32.3412 19.1915 32.5391 19.5946 32.6193C19.9977 32.6995 20.4156 32.6583 20.7953 32.5011C21.175 32.3438 21.4996 32.0774 21.7279 31.7357C21.9563 31.3939 22.0782 30.9921 22.0782 30.5811C22.0782 30.03 21.8592 29.5014 21.4695 29.1117C21.0798 28.7219 20.5512 28.503 20 28.503Z"
        fill="url(#paint0_linear_2_39)" />
    <path
        d="M31.0206 26.3679H11.3637L19.9999 11.4054L20.0087 11.4229L21.2031 9.35791L19.9999 7.27979L7.78931 28.4285H32.2106L31.0206 26.3679Z"
        fill="url(#paint1_linear_2_39)" />
    <path
        d="M29.0345 22.9296H18.1626L19.3482 20.869H25.4645L24.6595 19.4777L22.402 15.5621L21.2076 13.4971L21.2032 13.484L22.3932 11.4233L27.0438 19.4777L28.2338 21.5383L29.0345 22.9296Z"
        fill="url(#paint2_linear_2_39)" />
    <path d="M19.3481 20.8687L18.1625 22.9293H17.865V20.8687H19.3481Z"
        fill="url(#paint3_linear_2_39)" />
    <path
        d="M22.402 15.5621L19.3482 20.8689L18.1626 22.9296L16.1151 26.5608H13.7351L21.2076 13.4971L22.402 15.5621Z"
        fill="url(#paint4_linear_2_39)" />
    <defs>
        <linearGradient id="paint0_linear_2_39" x1="21.3385" y1="29.1091" x2="19.86" y2="33.7416"
            gradientUnits="userSpaceOnUse">
            <stop stop-color="#458FF6" />
            <stop offset="1" stop-color="#5A98F2" />
        </linearGradient>
        <linearGradient id="paint1_linear_2_39" x1="23.9575" y1="14.0971" x2="20.6124" y2="26.2004"
            gradientUnits="userSpaceOnUse">
            <stop stop-color="#458FF6" />
            <stop offset="1" stop-color="#5A98F2" />
        </linearGradient>
        <linearGradient id="paint2_linear_2_39" x1="25.3604" y1="15.1324" x2="23.2114" y2="21.4945"
            gradientUnits="userSpaceOnUse">
            <stop stop-color="#458FF6" />
            <stop offset="1" stop-color="#5A98F2" />
        </linearGradient>
        <linearGradient id="paint3_linear_2_39" x1="18.8469" y1="21.5329" x2="18.3765" y2="22.5937"
            gradientUnits="userSpaceOnUse">
            <stop stop-color="#458FF6" />
            <stop offset="1" stop-color="#5A98F2" />
        </linearGradient>
        <linearGradient id="paint4_linear_2_39" x1="19.473" y1="17.7082" x2="16.3293" y2="24.2433"
            gradientUnits="userSpaceOnUse">
            <stop stop-color="#458FF6" />
            <stop offset="1" stop-color="#5A98F2" />
        </linearGradient>
    </defs>
</svg>
    